<svg xmlns="http://www.w3.org/2000/svg" xmlns:xlink="http://www.w3.org/1999/xlink" viewBox="0 0 97.083 92.125" fill="#fff" fill-rule="evenodd" stroke="#000" stroke-linecap="round" stroke-linejoin="round"><use xlink:href="#A" x="1.042" y="1.042"/><symbol id="A" overflow="visible"><g stroke="none" fill-rule="nonzero"><path d="M63.316 85.517c4.783-7.788 6.856-16.938 5.898-26.027l-4.375-6.423-8.558-3.196c.115 1.333 3.271 11.506 4.194 14.163a5.05 5.05 0 0 1 .273 1.871c-.517 11.454-3.25 14.554-3.948 15.162l-.129.104-.033.021h.004a3.7 3.7 0 0 0-1.296 2.571c-.059 2.217 1.675 4.07 3.892 4.158a4.18 4.18 0 0 0 3.371-1.31l.004.004.017-.025a3.72 3.72 0 0 0 .683-1.079zm-21.988-1.85c.381-5.069.493-10.154.338-15.235a21.54 21.54 0 0 0-2.233-11.023l-4.427.819-2.292 5.375 1.867 5.5c2.483 7.083 1.458 10.362.342 11.84a4.75 4.75 0 0 0-1.26 1.092l-.017.006.008.002c-.936 1.084-1.183 2.602-.642 3.927 1.065 2.023 3.562 2.81 5.594 1.763 1.151-.496 2.05-1.438 2.494-2.61.004-.021.017-.042.021-.058.159-.45.232-.927.212-1.404z" fill="#6a462f"/><path d="M14.364 23.025a36.07 36.07 0 0 1 5.925 18.817.95.95 0 0 0 .025.196c.179.783 1.496 6.125 4.452 8.133 0 0 5.048 4.986-3.823 7.679 0 0-14.275 5.031-9.917 13.633 0 0 3.092 5.375 6.994.146a1.21 1.21 0 0 0 .177-.321c.358-1.176.281-2.441-.217-3.565-.209-.459-.084-1.001.304-1.323 2.32-1.999 5.482-2.714 8.435-1.906s4.833 2.042 10.875-7.433a1.02 1.02 0 0 1 .217-.25c1.029-.854 8.5-6.577 21.99-5.25.262.023.508.135.698.317 1.804 1.746 11.827 11.319 17.771 14.34.095.046.182.108.256.183 3.512 3.723 4.983 8.927 3.94 13.938a1.16 1.16 0 0 1-.302.583c-.885.904-3.804 4.417 1.858 6.569a1.2 1.2 0 0 0 .46.079c1.208-.046 6.525-.652 4.229-7.869a1 1 0 0 1-.052-.304c-.008-1.504-.183-14.492-3.629-21.744-.071-.15-.174-.282-.302-.387-.787-.658-3.89-4.475-1.535-22.754.012-.094.375-.306.35-.417-.41-1.408 2.342-5.688 3.631-6.933.385-.346 13.427-13.577 4.604-22.579-.062-.062.063.063 0 0-.917-.925-11.521-8.39-17.917-1.096a26.38 26.38 0 0 0-3.881 7.29c-1.554 5.452 2.219 9.996 4.296 4.719.208-.475 2.708-4.256 2.908-4.812.056-.18.156-.342.292-.473 1.071-.99 6.071-5.017 8.579 3.569 0 0 2.225 7.554-9.258 11.431-.275.096-.577.084-.844-.033-1.637-.733-8.452-3.258-19.2-.162a.66.66 0 0 1-.087.021c-.95.16-21.308 3.404-23.621-13.75 0 0-1.542-9.533-6.417-9.667L15.78 0s-4.729-.035-5.452 3.529c0 0-.083 2.923-5.465 2.771-1.381.006-6.487-.875-4.346 4.817.096.24.108.506.033.754-.458 1.402-1.64 6.563 5.369 7.104 0 0 6.131-.312 8.471 4.033z" fill="#a57939"/></g><g fill="none" stroke-linejoin="miter" stroke-width="4.167"><path d="M57.17 53.375l3.923 10.658a4.77 4.77 0 0 1 .29 1.871c-.55 11.454-3.458 14.554-4.198 15.162-.048.035.046-.035 0 0m4.635 5.875c8.071-7.196 7.381-27.45 7.381-27.45"/><path d="M57.183 81.066c-.812.695-1.358 1.65-1.546 2.702-.147 2.104 1.403 3.945 3.502 4.158 1.164.085 2.297-.404 3.033-1.31l.004.004M32.712 63.606l1.867 5.5c2.483 7.083 1.458 10.362.342 11.84l-1.25 1.104c-.936 1.084-1.184 2.602-.642 3.927 1.065 2.023 3.561 2.81 5.594 1.763 1.151-.496 2.05-1.438 2.494-2.611.004-.021.017-.042.021-.058.159-.45.231-.925.213-1.402.38-5.069.492-10.154.335-15.235a21.06 21.06 0 0 0-.233-4.802c-.331-2.167-1.006-4.267-2-6.221" stroke-linecap="butt"/><path d="M10.599 66.259a7.3 7.3 0 0 0 .425 5.225c.785 2.019 3.05 3.027 5.075 2.258 1.844-.846 1.8-3.746 1.167-5.888m-.096-.312a9.55 9.55 0 0 1 7.727-3.358c.387.004.771.062 1.142.173 2.906 1.047 6.142-.165 7.646-2.863m49.735-25.85l-.617 11.735s-.417 7.692 1.683 9.458a14.78 14.78 0 0 1 2.65 9.902l1.452 16.667M73.059 16.434c5.298-13.45 10.792-6.667 10.792-6.667 6.619 8.208-2.069 13.256-5.896 15-.93.383-1.977.368-2.896-.042-5.338-2.146-18.388.375-18.388.375-16.358 1.527-19.746-5.325-19.746-5.325-2.529-4.84-4.663-9.876-6.383-15.058-.331-1.092-1.131-1.98-2.183-2.423A43.16 43.16 0 0 0 17.624.138c-6.535-.75-7.321 3.438-7.321 3.438C9.195 6.43 7.307 6.334 7.307 6.334l-3.883.015c-4.792.271-2.771 5.215-2.771 5.215-1.221 6.458 6.433 7.765 6.433 7.765 2.488.058 4.863 1.048 6.656 2.773 3.276 4.886 5.365 10.47 6.102 16.306.444 7.654 3.615 10.333 3.615 10.333 5.948 5.771 0 7.958 0 7.958-8.767 3.177-11.979 6.729-12.798 9.596M88.586 83.39c.385 3.471-2.046 4.375-4.342 4.204-2.165-.015-3.913-1.772-3.917-3.937a18.98 18.98 0 0 1 .704-3.037"/><path d="M88.587 83.39l.056.833m-7.921-2.325c.777-2.594 2.292-9.361-1.308-14.617-.267-.387-.608-.717-1.002-.973-2.354-1.546-11.287-7.613-15.263-13.208-.549-.754-1.401-1.229-2.331-1.298-5.208-.454-21.531-.917-27.5 10.379"/></g><path d="M20.724 32.265s10.031 2.188 16.521-9.048c0 0 4.838 4.458 16.756 4.125-2.29 7.233-2.691 14.933-1.162 22.365-5.259.239-10.377 1.775-14.898 4.473-2.838-2.177-6.471-3.036-9.983-2.362-.557-1.674-1.534-3.178-2.837-4.367s-2.827-2.104-3.194-8.994z" fill="#d22f27" stroke="none" fill-rule="nonzero"/><g fill="none" stroke-linejoin="miter" stroke-width="4.167" stroke-linecap="butt" stroke="#fff"><path d="M43.262 39.171H33.72"/><path d="M38.482 43.942V34.4"/></g></symbol></svg>